<svg width="48" height="48" viewBox="0 0 45 26" fill="none" xmlns="http://www.w3.org/2000/svg">
<path d="M20.8969 6.856L20.7889 3.148H30.9049C31.0249 3.316 31.1329 3.568 31.2289 3.904C31.3249 4.216 31.3729 4.552 31.3729 4.912C31.3729 5.536 31.2289 6.016 30.9409 6.352C30.6529 6.688 30.2569 6.856 29.7529 6.856H20.8969ZM24.1009 3.148L24.1729 6.856H14.0569C13.9369 6.664 13.8289 6.412 13.7329 6.1C13.6369 5.788 13.5889 5.44 13.5889 5.056C13.5889 4.408 13.7329 3.928 14.0209 3.616C14.3089 3.304 14.7049 3.148 15.2089 3.148H24.1009ZM20.1769 5.884H24.7129V24.928C24.5209 25 24.2209 25.06 23.8129 25.108C23.4289 25.18 23.0329 25.216 22.6249 25.216C21.7369 25.216 21.1009 25.06 20.7169 24.748C20.3569 24.412 20.1769 23.86 20.1769 23.092V5.884Z" fill="#231A06"/>
<path d="M11 25L2 13.24L11 1" stroke="#96959E" stroke-width="3"/>
<path d="M34 25L43 13.5455L34 0.999999" stroke="#96959E" stroke-width="3"/>
</svg>
