<svg xmlns="http://www.w3.org/2000/svg" width="150" height="27" fill="none"><path d="m21.04 5.856-.108-3.708h10.116c.12.168.228.42.324.756a3.41 3.41 0 0 1 .144 1.008c0 .624-.144 1.104-.432 1.44s-.684.504-1.188.504H21.04zm3.204-3.708.072 3.708H14.2a3.542 3.542 0 0 1-.468-1.8c0-.648.144-1.128.432-1.44s.684-.468 1.188-.468h8.892zM20.32 4.884h4.536v19.044c-.192.072-.492.132-.9.18-.384.072-.78.108-1.188.108-.888 0-1.524-.156-1.908-.468-.36-.336-.54-.888-.54-1.656V4.884zm28.749 10.584c0 1.848-.36 3.456-1.08 4.824a7.69 7.69 0 0 1-3.06 3.132c-1.296.72-2.832 1.08-4.608 1.08s-3.324-.36-4.644-1.08a7.93 7.93 0 0 1-3.096-3.132c-.72-1.344-1.08-2.952-1.08-4.824 0-1.848.372-3.444 1.116-4.788s1.776-2.376 3.096-3.096c1.32-.744 2.856-1.116 4.608-1.116s3.276.372 4.572 1.116a7.41 7.41 0 0 1 3.06 3.132c.744 1.344 1.116 2.928 1.116 4.752zm-8.748-5.472c-1.32 0-2.364.48-3.132 1.44-.744.96-1.116 2.304-1.116 4.032 0 1.776.372 3.144 1.116 4.104.744.936 1.788 1.404 3.132 1.404 1.32 0 2.352-.48 3.096-1.44s1.116-2.316 1.116-4.068c0-1.704-.372-3.036-1.116-3.996-.744-.984-1.776-1.476-3.096-1.476zm29.244 5.472c0 1.848-.36 3.456-1.08 4.824a7.69 7.69 0 0 1-3.06 3.132c-1.296.72-2.832 1.08-4.608 1.08s-3.324-.36-4.644-1.08a7.93 7.93 0 0 1-3.096-3.132c-.72-1.344-1.08-2.952-1.08-4.824 0-1.848.372-3.444 1.116-4.788s1.776-2.376 3.096-3.096c1.32-.744 2.856-1.116 4.608-1.116s3.276.372 4.572 1.116a7.41 7.41 0 0 1 3.06 3.132c.744 1.344 1.116 2.928 1.116 4.752zm-8.748-5.472c-1.32 0-2.364.48-3.132 1.44-.744.96-1.116 2.304-1.116 4.032 0 1.776.372 3.144 1.116 4.104.744.936 1.788 1.404 3.132 1.404 1.32 0 2.352-.48 3.096-1.44s1.116-2.316 1.116-4.068c0-1.704-.372-3.036-1.116-3.996-.744-.984-1.776-1.476-3.096-1.476zm12.792 4.5 4.428.216v9.216a3.978 3.978 0 0 1-.828.18 6.07 6.07 0 0 1-1.188.108c-.816 0-1.428-.144-1.836-.432-.384-.312-.576-.852-.576-1.62v-7.668zm4.428 2.484-4.428-.216V.6c.168-.048.432-.108.792-.18.384-.072.78-.108 1.188-.108.864 0 1.488.156 1.872.468.384.288.576.816.576 1.584V16.98zm5.28-7.272h4.572v14.04l-2.124.288c-.744 0-1.344-.216-1.8-.648-.432-.456-.648-1.044-.648-1.764V9.708zm2.448 14.328v-3.744h11.448c.144.192.264.444.36.756.12.312.18.66.18 1.044 0 .648-.156 1.14-.468 1.476-.288.312-.684.468-1.188.468H85.765zm2.124-9.216h-4.572V2.148l.9-.18a7.03 7.03 0 0 1 1.224-.108c.864 0 1.488.156 1.872.468.384.288.576.84.576 1.656V14.82zm19.902 6.336a8.03 8.03 0 0 0 1.944-.216c.576-.144.996-.3 1.26-.468v-4.104l-3.564.36c-.984.072-1.74.288-2.268.648-.504.336-.756.84-.756 1.512a1.95 1.95 0 0 0 .828 1.656c.552.408 1.404.612 2.556.612zm-.18-14.688c2.352 0 4.224.504 5.616 1.512 1.392.984 2.088 2.544 2.088 4.68v8.28c0 .576-.144 1.032-.432 1.368a3.88 3.88 0 0 1-1.044.9c-.672.384-1.524.696-2.556.936-1.032.264-2.196.396-3.492.396-2.4 0-4.284-.456-5.652-1.368-1.368-.936-2.052-2.316-2.052-4.14 0-1.608.504-2.832 1.512-3.672 1.032-.864 2.52-1.392 4.464-1.584l4.896-.504v-.648c0-.96-.336-1.656-1.008-2.088-.648-.432-1.572-.648-2.772-.648a10.44 10.44 0 0 0-2.736.36c-.888.24-1.68.528-2.376.864-.24-.192-.456-.456-.648-.792s-.288-.684-.288-1.044c0-.864.48-1.5 1.44-1.908.672-.312 1.452-.54 2.34-.684a17.292 17.292 0 0 1 2.7-.216zm20.789 0c1.536 0 2.916.336 4.14 1.008 1.248.648 2.232 1.644 2.952 2.988.72 1.32 1.08 2.976 1.08 4.968 0 2.016-.384 3.696-1.152 5.04a7.145 7.145 0 0 1-3.168 3.024c-1.344.672-2.916 1.008-4.716 1.008-1.368 0-2.568-.168-3.6-.504-1.008-.312-1.86-.684-2.556-1.116-.504-.36-.876-.72-1.116-1.08-.216-.384-.324-.852-.324-1.404V8.772h4.428v11.34c.312.216.732.42 1.26.612.552.168 1.176.252 1.872.252 1.368 0 2.46-.456 3.276-1.368.84-.912 1.26-2.304 1.26-4.176 0-1.896-.408-3.276-1.224-4.14s-1.884-1.296-3.204-1.296c-.84 0-1.584.156-2.232.468s-1.2.672-1.656 1.08l-.288-3.6c.552-.336 1.236-.66 2.052-.972.84-.336 1.812-.504 2.916-.504zm-4.032 3.312h-4.428V.6l.828-.18c.36-.072.756-.108 1.188-.108.84 0 1.452.156 1.836.468.384.288.576.816.576 1.584V9.78z" fill="#fff"/><path d="M11 26 2 14.24 11 2m128 24 9-11.454L139 2" stroke="#96959e" stroke-width="3"/></svg>