<svg width="25" height="25" fill="none" xmlns="http://www.w3.org/2000/svg"><rect width="25" height="25" rx="2" fill="#D9D9D9"/><path d="M10.143 21a7.879 7.879 0 0 1-3.178-.645 8.278 8.278 0 0 1-2.579-1.741 8.278 8.278 0 0 1-1.741-2.579A7.878 7.878 0 0 1 2 12.857c0-2.262.792-4.184 2.375-5.768 1.583-1.583 3.506-2.375 5.768-2.375h.136L8.876 3.312 10.143 2l3.619 3.619-3.62 3.62-1.266-1.313 1.403-1.402h-.136c-1.764 0-3.261.614-4.49 1.843-1.229 1.23-1.843 2.726-1.843 4.49 0 1.764.614 3.261 1.843 4.49s2.726 1.843 4.49 1.843a6.41 6.41 0 0 0 1.56-.192 6.145 6.145 0 0 0 1.47-.577l1.313 1.312a7.636 7.636 0 0 1-2.081.95 8.195 8.195 0 0 1-2.262.317Zm5.428-2.714-5.428-5.429L15.57 7.43 21 12.857l-5.429 5.429Zm0-2.579 2.85-2.85-2.85-2.85-2.85 2.85 2.85 2.85Z" fill="#000"/></svg>